<svg width="400" height="400" viewBox="0 0 400 400" fill="none" xmlns="http://www.w3.org/2000/svg">
<g clip-path="url(#clip0)">
<rect width="400" height="400" fill="#3E4B64"/>
<ellipse cx="222.662" cy="121.437" rx="102.272" ry="102.112" transform="rotate(-75 222.662 121.437)" fill="#DF0078"/>
<ellipse cx="180.559" cy="278.565" rx="102.272" ry="102.112" transform="rotate(-75 180.559 278.565)" fill="#DF0078"/>
<path d="M220.54 210.38C219.576 210.893 219.23 212.103 219.775 213.048L243.861 254.766C244.394 255.689 245.574 256.005 246.497 255.472L284.82 233.346C285.198 233.128 285.68 233.342 285.77 233.77L303.327 316.364C303.629 317.783 304.702 318.914 306.103 319.289L384.13 340.198C384.594 340.323 385.026 339.913 384.926 339.443L354.478 196.208C354.131 194.573 354.876 192.899 356.324 192.063L392.295 171.295C393.743 170.459 394.488 168.786 394.14 167.151L384.926 123.799C384.837 123.381 384.372 123.164 383.994 123.365L220.54 210.38Z" fill="#DF0078"/>
<path d="M52.3406 253.815C50.9389 253.44 49.8664 252.31 49.5647 250.89L21.1512 117.225C20.8292 115.71 21.4439 114.149 22.7125 113.261L94.9265 62.6966C95.304 62.4323 95.8288 62.639 95.9246 63.0897L126.721 207.969C126.812 208.396 127.294 208.61 127.672 208.392L170.199 183.839C171.122 183.306 172.302 183.623 172.834 184.545L193.161 219.753C193.662 220.619 193.417 221.724 192.597 222.298L122.696 271.242C121.761 271.896 120.585 272.103 119.483 271.808L52.3406 253.815Z" fill="#DF0078"/>
</g>
<defs>
<clipPath id="clip0">
<rect width="400" height="400" fill="white"/>
</clipPath>
</defs>
</svg>
