<?xml version="1.0" encoding="utf-8"?>
<!-- Generator: Adobe Illustrator 25.2.3, SVG Export Plug-In . SVG Version: 6.00 Build 0)  -->
<svg version="1.1" id="Layer_1" xmlns="http://www.w3.org/2000/svg" xmlns:xlink="http://www.w3.org/1999/xlink" x="0px" y="0px"
	 viewBox="0 0 164 40" style="enable-background:new 0 0 164 40;" xml:space="preserve">
<style type="text/css">
	.st0{fill:#1BE6AD;}
	.st1{fill:#34C099;}
	.st2{fill:#11674E;}
	.st3{fill:#168666;}
	.st4{fill:#D7FFF4;}
	.st5{fill:#FFFFFF;}
</style>
<path class="st0" d="M16.5,38.9c-5,0-9-1.3-11.7-3.8c-2.4-2.2-3.7-5.4-3.8-9c0.1,0,0.2,0,0.3,0s0.2,0,0.3,0c0,0,0,0,0,0
	c0.1,0,0.3-0.1,0.3-0.2C2,25.9,2.1,25.7,2,25.6c-0.7-1.9-1-5.7-0.3-7.6c0.1,0,0.2,0.1,0.4,0.2c0.1,0,0.1,0,0.2,0
	c0.1,0,0.2,0,0.2-0.1c0.1-0.1,0.2-0.2,0.2-0.4c0,0-0.2-2.8,1.8-5.3c0.1,0,0.1,0.1,0.2,0.1c0.1,0.1,0.3,0.2,0.4,0.3
	c0.1,0,0.1,0,0.2,0c0.1,0,0.1,0,0.2-0.1c0.1-0.1,0.2-0.2,0.2-0.3C6,10.2,7.1,8.5,8.3,7c0.1,0,0.1,0.1,0.2,0.1C8.7,7.2,8.8,7.3,9,7.3
	c0.1,0,0.1,0.1,0.2,0.1c0.1,0,0.1,0,0.2,0c0.1-0.1,0.2-0.1,0.2-0.3c0.3-0.8,1.6-3.1,4.2-4.9c0.1,0,0.2,0.1,0.2,0.1
	c0.1,0.1,0.2,0.2,0.4,0.2c0.1,0,0.1,0.1,0.2,0.1c0.1,0,0.2-0.1,0.3-0.1c0.5-0.5,1-0.9,1.6-1.5c0.5,0.4,1.4,1.2,1.7,1.5
	c0.1,0.1,0.2,0.1,0.3,0.1c0.1,0,0.2,0,0.2-0.1c0.1-0.1,0.3-0.2,0.4-0.2c0.1-0.1,0.2-0.1,0.2-0.1c2.5,1.8,3.9,4.1,4.2,4.9
	c0,0.1,0.1,0.2,0.2,0.3c0.1,0,0.1,0,0.2,0c0.1,0,0.1,0,0.2-0.1c0.2-0.1,0.3-0.2,0.4-0.2c0.1,0,0.2-0.1,0.2-0.1
	c1.2,1.5,2.4,3.3,2.6,5.5c0,0.1,0.1,0.3,0.2,0.3c0.1,0,0.1,0.1,0.2,0.1c0.1,0,0.1,0,0.2,0c0.1-0.1,0.3-0.2,0.4-0.3
	c0.1,0,0.1-0.1,0.2-0.1c2,2.5,1.8,5.3,1.8,5.3c0,0.2,0.1,0.3,0.2,0.4c0.1,0.1,0.2,0.1,0.2,0.1c0.1,0,0.1,0,0.2,0
	c0.2-0.1,0.3-0.1,0.4-0.2c0.7,1.9,0.5,5.7-0.3,7.6c-0.1,0.1,0,0.3,0.1,0.4c0.1,0.1,0.2,0.2,0.3,0.2c0,0,0,0,0,0c0.1,0,0.2,0,0.3,0
	s0.2,0,0.3,0c-0.1,3.7-1.3,6.8-3.7,9C25.6,37.6,21.5,38.9,16.5,38.9z"/>
<path class="st1" d="M16.5,38.9c-5,0-9-1.3-11.7-3.9c-2.5-2.3-3.8-5.4-3.8-9.1c0,0,0-0.1,0-0.1L1.6,25c0,0,0-0.1,0-0.1
	c-0.6-2-0.7-5.2-0.1-7.1c0,0,0-0.1,0.1-0.1l0.8-0.4c0,0,0.1-0.1,0.1-0.1c0.1-1,0.4-3,1.9-4.9c0,0,0.1,0,0.1,0l1-0.2c0,0,0,0,0,0
	c0.4-2,1.5-3.6,2.5-5c0,0,0,0,0.1,0L9,6.9c0,0,0.1,0,0.1,0c0.1,0,0.2,0,0.2-0.1c0.6-1.1,1.9-2.9,4-4.4c0,0,0,0,0.1,0l0.7-0.1
	c0,0,0.1,0,0.1,0c0.1,0,0.2,0.1,0.3,0.2c0,0,0,0,0.1,0c0.4-0.4,0.8-0.8,1.4-1.2c0,0,0.1,0,0.1,0l0.9,0c0,0,0.1,0,0.1,0
	c0.4,0.3,1,0.9,1.4,1.2c0,0,0.1,0,0.1-0.1c0.1-0.1,0.2-0.1,0.3-0.2c0,0,0,0,0.1,0l0.7,0.1c0,0,0,0,0.1,0c2.1,1.5,3.4,3.3,4,4.4
	c0,0.1,0.1,0.1,0.2,0.1c0,0,0.1,0,0.1,0l0.9,0.2c0,0,0.1,0,0.1,0c1.1,1.3,2.2,3,2.5,5c0,0,0,0,0,0l1,0.2c0,0,0.1,0,0.1,0
	c1.5,1.9,1.8,3.9,1.9,4.9c0,0,0,0.1,0.1,0.1l0.8,0.4c0,0,0.1,0,0.1,0.1c0.7,1.8,0.5,5-0.1,7.1c0,0,0,0.1,0,0.1l0.7,0.7
	c0,0,0,0.1,0,0.1c-0.1,3.7-1.4,6.8-3.8,9.1C25.5,37.5,21.5,38.9,16.5,38.9z M2.2,26.8c-0.1,0-0.1,0.1-0.1,0.1
	c0.2,2.9,1.4,5.5,3.4,7.3c2.5,2.3,6.3,3.6,11,3.6c4.7,0,8.5-1.2,11-3.6c2-1.8,3.1-4.3,3.4-7.3c0-0.1,0-0.1-0.1-0.1
	c-0.5-0.2-1-0.7-0.8-1.5c0,0,0,0,0,0c0.6-1.4,0.9-4.3,0.6-6.2c0-0.1-0.1-0.1-0.1-0.1c-0.2,0-0.4-0.1-0.6-0.2
	c-0.4-0.3-0.6-0.7-0.5-1.1c0,0,0.1-2-1.1-4c0-0.1-0.1-0.1-0.2-0.1c-0.1,0-0.1,0-0.2,0.1c0,0,0,0,0,0c-0.8,0.1-1.4-0.4-1.5-1.1
	c-0.2-1.7-0.9-3-1.9-4.3c0,0-0.1-0.1-0.2,0c-0.3,0.1-0.6,0.1-1,0c-0.4-0.1-0.6-0.4-0.7-0.8c-0.1-0.4-1.1-2.3-3.3-4c0,0-0.1,0-0.2,0
	c0,0,0,0-0.1,0c-0.2,0.1-0.4,0.2-0.6,0.2c-0.3,0-0.6-0.1-0.9-0.3c-0.2-0.1-0.6-0.5-1-0.9c-0.1,0-0.1,0-0.2,0
	c-0.3,0.3-0.6,0.5-0.9,0.9c-0.2,0.2-0.6,0.4-0.9,0.4c-0.2,0-0.4-0.1-0.6-0.2c0,0,0,0-0.1,0c0,0-0.1,0-0.2,0c-2.2,1.7-3.2,3.6-3.3,4
	C10.3,7.9,10,8.2,9.7,8.3c-0.3,0.1-0.7,0.1-1,0c-0.1,0-0.1,0-0.2,0c-0.9,1.2-1.7,2.6-1.9,4.3c-0.1,0.7-0.7,1.2-1.5,1.1c0,0,0,0,0,0
	c-0.1,0-0.1,0-0.2-0.1c-0.1,0-0.1,0-0.2,0.1c-1.2,2-1.1,3.9-1.1,4c0,0.4-0.2,0.9-0.5,1.1C3,18.9,2.8,19,2.6,19c-0.1,0-0.1,0-0.1,0.1
	C2.1,21,2.4,24,3,25.3c0,0,0,0,0,0C3.1,26.1,2.7,26.6,2.2,26.8z"/>
<path class="st2" d="M20.6,20.3c1.4,0,2.5-1.5,2.5-3.3c0-1.8-1.1-3.3-2.5-3.3c-1.4,0-2.5,1.5-2.5,3.3C18.1,18.8,19.2,20.3,20.6,20.3
	z"/>
<path class="st2" d="M12.3,20.3c1.4,0,2.5-1.5,2.5-3.3c0-1.8-1.1-3.3-2.5-3.3S9.8,15.1,9.8,17C9.8,18.8,10.9,20.3,12.3,20.3z"/>
<path class="st3" d="M16.5,40c-5.2,0-9.5-1.4-12.4-4.1C1.4,33.4,0,29.9,0,25.9c0,0,0,0,0,0c0-0.2,0.1-0.4,0.3-0.5
	c0.1-0.1,0.2-0.1,0.3-0.1c0.1,0,0.2-0.2,0.1-0.3c-0.6-2.3-0.7-5.5,0.1-7.4C0.9,17.3,1,17.1,1.3,17C1.3,17,1.4,17,1.5,17
	c0.1,0,0.2-0.1,0.2-0.2c0.1-1.2,0.6-3.3,2.2-5.2c0.2-0.3,0.5-0.3,0.8-0.2c0.1,0,0.2,0,0.3-0.2c0.5-2,1.6-3.6,2.7-5
	c0.3-0.4,0.7-0.3,1-0.2c0.1,0.1,0.2,0,0.3-0.1c0.7-1.2,2.1-3.1,4.2-4.6c0.4-0.3,0.8-0.1,1.2,0c0.1,0.1,0.2,0,0.3,0
	c0.5-0.4,0.9-0.8,1.4-1.2c0.3-0.2,0.7-0.3,1.1,0c0.4,0.3,1,0.8,1.4,1.2c0.1,0.1,0.2,0.1,0.3,0c0.3-0.2,0.7-0.4,1.2-0.1
	c2.1,1.5,3.5,3.3,4.2,4.6C24.1,6,24.2,6.1,24.3,6c0.3-0.1,0.7-0.2,1,0.2c1.7,2.2,2.4,3.7,2.7,5c0,0.1,0.2,0.2,0.3,0.2
	c0.3-0.1,0.5-0.1,0.7,0.2c1.6,1.9,2.1,4,2.2,5.2c0,0.1,0.1,0.2,0.2,0.2c0.1,0,0.2,0,0.2,0.1c0.2,0.1,0.4,0.2,0.5,0.5
	c0.8,1.8,0.7,5.1,0.1,7.4c0,0.1,0,0.2,0.1,0.3c0.1,0,0.2,0.1,0.3,0.1c0.2,0.1,0.3,0.3,0.3,0.5c0,0,0,0,0,0c0,4.1-1.4,7.5-4.1,10
	C26,38.5,21.7,40,16.5,40z M1.2,26.3c0.1,3.5,1.4,6.5,3.7,8.7c2.7,2.5,6.7,3.8,11.6,3.8c5,0,9-1.3,11.6-3.8c2.3-2.2,3.6-5.2,3.7-8.7
	c0,0-0.1,0-0.1,0c-0.1,0-0.2,0-0.3,0c-0.3,0-0.7-0.2-0.6-0.7c0,0,0-0.1,0-0.1c0.7-1.7,1-5.2,0.5-7.2c0-0.1-0.2-0.2-0.3-0.1
	c0,0-0.1,0-0.1,0c0,0-0.1,0-0.1,0c-0.4,0-0.7-0.3-0.7-0.6c0,0,0.2-2.6-1.7-5.1c0,0,0,0-0.1,0c-0.2,0.1-0.4,0.2-0.5,0.3
	c0,0,0,0-0.1,0c-0.4,0.1-0.7-0.2-0.7-0.5c-0.2-2.1-1.3-3.8-2.5-5.3c0,0-0.1,0-0.1,0.1c-0.1,0.1-0.3,0.2-0.5,0.3c0,0,0,0-0.1,0
	c-0.3,0.1-0.6-0.1-0.7-0.4c-0.2-0.8-1.5-2.9-3.9-4.6c-0.1-0.1-0.2-0.1-0.3,0c-0.1,0.1-0.2,0.2-0.4,0.2c-0.2,0.1-0.5,0.1-0.7-0.1
	c-0.2-0.2-0.9-0.8-1.4-1.3c-0.1-0.1-0.2-0.1-0.3,0c-0.5,0.4-0.9,0.8-1.4,1.2c-0.2,0.2-0.5,0.2-0.7,0.1c-0.2-0.1-0.3-0.2-0.4-0.2
	c-0.1-0.1-0.2-0.1-0.3,0c-2.4,1.8-3.7,4-3.9,4.7c0,0,0,0,0,0.1C9.5,7.6,9.1,7.6,8.8,7.5C8.7,7.4,8.6,7.3,8.5,7.3c0,0-0.1,0-0.1-0.1
	c-1.2,1.5-2.3,3.2-2.5,5.3c0,0,0,0,0,0.1c-0.1,0.4-0.5,0.5-0.8,0.4c-0.2-0.1-0.3-0.2-0.5-0.3c0,0,0,0-0.1,0
	c-1.9,2.4-1.7,5.1-1.7,5.1c0,0.4-0.3,0.7-0.7,0.6c0,0-0.1,0-0.1,0c0,0-0.1,0-0.1,0c-0.1-0.1-0.3,0-0.3,0.1c-0.6,2-0.3,5.5,0.4,7.2
	c0,0,0,0,0,0.1c0,0.4-0.3,0.7-0.6,0.7C1.5,26.3,1.4,26.3,1.2,26.3C1.2,26.3,1.2,26.3,1.2,26.3z M18.8,1.8
	C18.8,1.8,18.8,1.8,18.8,1.8C18.8,1.8,18.8,1.8,18.8,1.8z"/>
<path class="st4" d="M21.8,36.6c-0.1,0-0.2-0.1-0.2-0.2c0-0.1,0-0.3,0.2-0.3c4.5-1.3,7.1-4.2,7.9-8.6c0-0.1,0.2-0.2,0.3-0.2
	c0.1,0,0.2,0.2,0.2,0.3C29.4,32.2,26.6,35.2,21.8,36.6C21.9,36.6,21.9,36.6,21.8,36.6z"/>
<path class="st4" d="M29.3,24.9C29.2,24.9,29.2,24.9,29.3,24.9c-0.2-0.1-0.3-0.2-0.2-0.3c0.5-1.4,0.7-3.1,0.5-4.8
	c0-0.1,0.1-0.3,0.2-0.3c0.1,0,0.3,0.1,0.3,0.2c0.2,1.8,0,3.5-0.5,5C29.5,24.9,29.4,24.9,29.3,24.9z"/>
<path class="st4" d="M25.3,13.1c-0.1,0-0.2-0.1-0.2-0.2c-0.1-1.1-0.5-2.4-1.3-3.3c-0.1-0.1-0.1-0.3,0-0.4c0.1-0.1,0.3-0.1,0.4,0
	c0.8,1.1,1.3,2.4,1.4,3.6C25.6,12.9,25.5,13.1,25.3,13.1C25.3,13.1,25.3,13.1,25.3,13.1z"/>
<path class="st4" d="M21.6,7.9c-0.1,0-0.2-0.1-0.2-0.1c-0.8-1.7-2.5-3.1-2.5-3.1c-0.1-0.1-0.1-0.3,0-0.4c0.1-0.1,0.3-0.1,0.4,0
	c0.1,0.1,1.8,1.5,2.7,3.3c0.1,0.1,0,0.3-0.1,0.3C21.7,7.9,21.7,7.9,21.6,7.9z"/>
<path class="st4" d="M17.2,4.4c-0.1,0-0.1,0-0.2-0.1l-0.5-0.4l-0.1,0.1C16.3,4,16.1,4,16,3.9c-0.1-0.1-0.1-0.3,0-0.4l0.3-0.2
	c0.1-0.1,0.2-0.1,0.3,0l0.7,0.6c0.1,0.1,0.1,0.3,0,0.4C17.3,4.3,17.2,4.4,17.2,4.4z"/>
<path class="st4" d="M28.3,18.2c-0.1,0-0.2-0.1-0.2-0.3c0.1-2.1-0.6-3.3-0.6-3.3c-0.1-0.1,0-0.3,0.1-0.3c0.1-0.1,0.3,0,0.3,0.1
	c0,0.1,0.8,1.4,0.7,3.6C28.5,18.1,28.4,18.2,28.3,18.2z"/>
<g>
	<path class="st5" d="M53.8,14.9l-5,7.5l-4.9-7.5c-0.2-0.2-0.4-0.4-0.7-0.6c-0.8-0.4-1.6-0.3-2.2,0.3c-0.4,0.4-0.5,0.8-0.5,1.3v13.7
		c0,0.5,0.2,0.9,0.5,1.3c0.3,0.3,0.7,0.5,1.2,0.5c0.5,0,0.9-0.2,1.3-0.5c0.3-0.4,0.5-0.8,0.5-1.3v-8.5l3.3,5.2
		c0.2,0.2,0.4,0.4,0.6,0.5c0.3,0.2,0.6,0.2,0.8,0.2c0.3,0,0.6-0.1,0.8-0.2c0.3-0.1,0.5-0.3,0.7-0.6l3.3-5v8.4c0,0.5,0.2,0.9,0.5,1.3
		c0.4,0.3,0.8,0.5,1.3,0.5c0.5,0,1-0.2,1.3-0.5c0.3-0.4,0.5-0.8,0.5-1.3V15.9c0-0.5-0.2-1-0.6-1.3C55.7,13.9,54.5,14,53.8,14.9z"/>
	<path class="st5" d="M61.3,13.7c-0.6,0-1,0.1-1.3,0.3c-0.3,0.2-0.5,0.6-0.5,1.2v0.5c0,0.6,0.2,1,0.5,1.2c0.3,0.2,0.7,0.3,1.4,0.3
		c0.6,0,1.1-0.1,1.4-0.3c0.3-0.2,0.5-0.7,0.5-1.2v-0.5c0-0.6-0.2-1-0.5-1.2C62.4,13.8,62,13.7,61.3,13.7z"/>
	<path class="st5" d="M60.1,18.6c-0.3,0.3-0.5,0.8-0.5,1.3v9.8c0,0.5,0.2,0.9,0.5,1.3c0.3,0.3,0.8,0.5,1.3,0.5s0.9-0.2,1.3-0.5
		c0.3-0.4,0.5-0.8,0.5-1.3v-9.8c0-0.5-0.2-0.9-0.5-1.3C61.9,17.9,60.7,17.9,60.1,18.6z"/>
	<path class="st5" d="M75.4,18.6c-0.7-0.5-1.6-0.8-2.9-0.8c-0.6,0-1.1,0.1-1.6,0.3c-0.5,0.2-0.9,0.4-1.3,0.7
		c-0.3,0.2-0.5,0.4-0.7,0.6c-0.1-0.3-0.2-0.6-0.4-0.8c-0.7-0.7-1.9-0.7-2.6,0c-0.3,0.3-0.5,0.8-0.5,1.3v9.8c0,0.5,0.2,0.9,0.5,1.3
		c0.7,0.7,1.9,0.7,2.6,0c0.3-0.4,0.5-0.8,0.5-1.3v-6.1c0-0.5,0.1-0.9,0.3-1.2c0.2-0.4,0.5-0.7,0.9-0.9c0.4-0.2,0.9-0.3,1.4-0.3
		c0.6,0,1,0.1,1.3,0.3c0.3,0.2,0.5,0.5,0.6,0.8c0.1,0.4,0.2,0.8,0.2,1.3v6.1c0,0.5,0.2,0.9,0.5,1.3c0.3,0.3,0.8,0.5,1.3,0.5
		s0.9-0.2,1.3-0.5c0.3-0.4,0.5-0.8,0.5-1.3v-6.1c0-1-0.1-2-0.4-2.8C76.5,19.9,76.1,19.2,75.4,18.6z"/>
	<path class="st5" d="M85.6,21.6c0.5,0,0.9-0.2,1.2-0.5c0.3-0.3,0.5-0.7,0.5-1.2c0-0.5-0.2-0.9-0.5-1.2c-0.3-0.3-0.7-0.5-1.2-0.5
		h-1.3v-1.2c0-0.5-0.2-0.9-0.5-1.3c-0.6-0.7-1.9-0.7-2.6,0c-0.3,0.3-0.5,0.8-0.5,1.3v1.2H80c-0.5,0-0.9,0.2-1.2,0.5
		c-0.3,0.3-0.5,0.7-0.5,1.2c0,0.5,0.2,0.9,0.5,1.2c0.3,0.3,0.7,0.5,1.2,0.5h0.7v6.2c0,0.8,0.1,1.5,0.4,2c0.3,0.5,0.6,0.9,1,1.1
		c0.4,0.2,0.8,0.4,1.3,0.4c0.4,0,0.8,0.1,1.2,0.1c0.6,0,1.2-0.2,1.7-0.5c0.8-0.4,0.9-1,0.9-1.4c0-0.5-0.1-0.8-0.4-1.1
		c-0.3-0.4-0.6-0.4-0.9-0.4c-0.3,0-0.5,0.1-0.7,0.1c-0.2,0.1-0.5,0.1-0.7,0c-0.1,0-0.1-0.1-0.2-0.2c0-0.1-0.1-0.2-0.1-0.4v-6.1H85.6
		z"/>
	<path class="st5" d="M97.8,18.6c-0.3,0.3-0.5,0.8-0.5,1.3v6.1c0,0.5-0.1,1-0.3,1.4c-0.2,0.4-0.4,0.6-0.7,0.8
		c-0.3,0.2-0.7,0.3-1.2,0.3c-0.7,0-1.3-0.2-1.7-0.5c-0.4-0.4-0.6-1-0.6-1.9v-6.1c0-0.5-0.2-0.9-0.5-1.3c-0.7-0.7-1.9-0.7-2.6,0
		c-0.3,0.3-0.5,0.8-0.5,1.3v6.9c0,0.9,0.2,1.8,0.6,2.5c0.4,0.7,0.9,1.3,1.6,1.8c0.7,0.4,1.5,0.6,2.4,0.6c0.7,0,1.4-0.1,2-0.3
		c0.6-0.2,1-0.4,1.4-0.7c0,0.4-0.2,0.8-0.3,1.1c-0.2,0.4-0.5,0.7-0.9,0.8c-0.4,0.2-1,0.3-1.7,0.3c-0.5,0-0.9-0.1-1.3-0.2
		c-0.4-0.2-0.8-0.3-1-0.4c-0.4-0.2-0.9-0.1-1.3,0.1c-0.4,0.2-0.7,0.6-0.9,1.2c-0.1,0.4-0.1,0.9,0.1,1.3c0.2,0.4,0.6,0.7,1.2,0.9
		c0.4,0.2,0.9,0.3,1.5,0.4c0.6,0.1,1.1,0.1,1.7,0.1c1.2,0,2.3-0.2,3.2-0.6c1-0.4,1.8-1.1,2.4-2c0.6-0.9,0.9-2.1,0.9-3.7V19.9
		c0-0.5-0.2-0.9-0.5-1.3C99.6,17.9,98.4,17.9,97.8,18.6z"/>
	<path class="st5" d="M114,22.7c-0.5-0.4-1.2-0.7-1.9-1c-0.7-0.2-1.6-0.5-2.5-0.6c-0.7-0.1-1.3-0.3-1.8-0.5
		c-0.5-0.2-0.8-0.4-1.1-0.6c-0.2-0.3-0.3-0.6-0.3-1c0-0.3,0.1-0.6,0.3-0.8c0.2-0.2,0.5-0.4,0.9-0.6c0.7-0.3,1.6-0.4,2.9,0
		c0.5,0.1,0.9,0.3,1.3,0.5c0.4,0.2,0.7,0.4,1,0.6c0.6,0.5,1.5,0.3,2.1-0.3c0.3-0.4,0.5-0.8,0.5-1.2c0-0.6-0.3-1.1-0.8-1.5
		c-0.6-0.5-1.4-0.9-2.3-1.2c-1.9-0.7-4.3-0.7-6.1,0.1c-1,0.4-1.7,1-2.3,1.8c-0.6,0.8-0.9,1.7-0.9,2.8c0,0.7,0.1,1.4,0.4,2
		c0.2,0.6,0.6,1.1,1.1,1.6c0.5,0.4,1.1,0.8,1.8,1.1c0.7,0.3,1.5,0.5,2.3,0.6c0.9,0.1,1.6,0.3,2.2,0.5c0.5,0.2,0.9,0.4,1.2,0.7
		c0.2,0.3,0.3,0.6,0.3,1c0,0.3-0.1,0.6-0.3,0.8c-0.3,0.3-0.6,0.5-1.1,0.7c-0.5,0.2-1,0.2-1.5,0.2c-0.8,0-1.5-0.1-2.1-0.4
		c-0.6-0.2-1.1-0.6-1.7-1.1c-0.7-0.6-1.7-0.5-2.3,0.2c-0.3,0.3-0.5,0.7-0.5,1.2c0,0.3,0.1,0.6,0.2,0.8c0.1,0.3,0.3,0.5,0.6,0.7
		c0.8,0.7,1.7,1.2,2.7,1.5c0.9,0.3,2,0.4,3.1,0.4c1.1,0,2.2-0.2,3.1-0.6c1-0.4,1.8-1,2.4-1.8c0.6-0.8,0.9-1.8,0.9-2.9
		c0-0.9-0.1-1.6-0.4-2.2C115,23.6,114.6,23.1,114,22.7z"/>
	<path class="st5" d="M132.4,18.1c-1.1,0-1.6,0.6-1.7,1.1l-2.2,5.9l-1.5-4c-0.1-0.3-0.3-0.6-0.5-0.8c-0.2-0.2-0.6-0.3-1-0.3
		c-0.8,0-1.3,0.4-1.6,1.1l-1.5,4.2l-2.2-6c-0.1-0.4-0.3-0.7-0.7-0.9c-0.3-0.2-0.6-0.3-1-0.3c-0.6,0-1,0.2-1.3,0.6
		c-0.3,0.4-0.5,0.8-0.5,1.3c0,0.2,0,0.5,0.1,0.7l3.6,9.8c0.1,0.4,0.4,0.7,0.8,0.9c0.3,0.2,0.6,0.2,0.9,0.2c0.1,0,0.2,0,0.2,0
		c0.5,0,1.1-0.2,1.5-1.1l1.6-4.8l1.7,4.9c0.4,0.9,1,1.1,1.5,1.1c0.4,0.1,0.8,0,1.1-0.2c0.4-0.2,0.6-0.5,0.7-0.9l3.6-9.8
		c0-0.1,0.1-0.2,0.1-0.3c0-0.1,0-0.2,0-0.4c0-0.5-0.2-1-0.5-1.3C133.3,18.2,132.8,18.1,132.4,18.1z"/>
	<path class="st5" d="M145.1,18.4c-0.2,0.2-0.3,0.4-0.4,0.6c0,0,0,0,0,0c-0.4-0.3-1-0.6-1.6-0.8c-0.6-0.2-1.3-0.3-2-0.3
		c-1.1,0-2.2,0.3-3.1,0.9c-0.9,0.6-1.7,1.4-2.2,2.5c-0.5,1-0.8,2.2-0.8,3.6c0,1.3,0.3,2.5,0.8,3.6c0.5,1,1.3,1.9,2.2,2.5
		c0.9,0.6,2,0.9,3.2,0.9c0.6,0,1.2-0.1,1.8-0.3c0.6-0.2,1-0.5,1.4-0.8c0.1-0.1,0.2-0.1,0.3-0.2c0.1,0.2,0.2,0.4,0.4,0.6
		c0.7,0.7,1.9,0.7,2.6,0c0.3-0.4,0.5-0.8,0.5-1.3v-10c0-0.5-0.2-1-0.5-1.3C147,17.7,145.8,17.7,145.1,18.4z M144.7,24.8
		c0,0.7-0.1,1.3-0.4,1.9c-0.3,0.5-0.6,1-1.1,1.3c-0.5,0.3-1,0.5-1.6,0.5c-0.6,0-1.1-0.2-1.6-0.5c-0.5-0.3-0.8-0.7-1.1-1.3
		c-0.3-0.5-0.4-1.2-0.4-1.9c0-0.7,0.1-1.3,0.4-1.9c0.3-0.5,0.6-1,1.1-1.3c0.5-0.3,1-0.5,1.6-0.5c0.6,0,1.2,0.2,1.6,0.5
		c0.5,0.3,0.8,0.7,1.1,1.3C144.6,23.4,144.7,24.1,144.7,24.8z"/>
	<path class="st5" d="M162.9,21.2c-0.5-1-1.3-1.9-2.2-2.4c-0.9-0.6-2-0.9-3.2-0.9c-0.6,0-1.2,0.1-1.7,0.3c-0.5,0.2-1,0.5-1.4,0.8
		c-0.1,0.1-0.3,0.2-0.4,0.3c-0.1-0.2-0.2-0.4-0.4-0.6c-0.7-0.7-1.9-0.7-2.6,0c-0.3,0.3-0.5,0.8-0.5,1.3v14.6c0,0.5,0.2,1,0.5,1.3
		c0.3,0.3,0.8,0.5,1.3,0.5c0.5,0,0.9-0.2,1.3-0.5c0.3-0.3,0.5-0.8,0.5-1.3v-3.9c0.5,0.3,1,0.6,1.6,0.8c0.6,0.2,1.2,0.3,1.9,0.3
		c1.1,0,2.2-0.3,3.1-0.9c0.9-0.6,1.7-1.4,2.2-2.5c0.5-1,0.8-2.3,0.8-3.6C163.7,23.4,163.4,22.2,162.9,21.2z M160.2,24.8
		c0,0.7-0.1,1.3-0.4,1.9c-0.3,0.5-0.6,1-1.1,1.3c-0.9,0.6-2.3,0.6-3.2,0c-0.5-0.3-0.8-0.7-1.1-1.3c-0.3-0.6-0.4-1.2-0.4-1.9
		c0-0.7,0.1-1.3,0.4-1.9c0.3-0.5,0.6-1,1.1-1.3c0.5-0.3,1-0.5,1.6-0.5c0.6,0,1.2,0.2,1.6,0.5c0.5,0.3,0.8,0.7,1.1,1.3
		C160.1,23.4,160.2,24.1,160.2,24.8z"/>
</g>
</svg>
