<svg id="Layer_1" data-name="Layer 1" xmlns="http://www.w3.org/2000/svg" viewBox="0 0 400 400"><defs><style>.cls-1{fill:#222;}.cls-2{fill:#f5364c;}.cls-3{fill:#afdc07;}</style></defs><path class="cls-1" d="M760.08,540.05q0-97.92-.08-195.83c0-3.19.32-4.22,4-4.22q196.11.19,392.22,0c3.16,0,3.81.75,3.81,3.84q-.13,196.08,0,392.18c0,2.85-.3,4-3.69,4q-196.36-.16-392.73,0c-3,0-3.56-.66-3.56-3.6Q760.15,638.23,760.08,540.05ZM808,548c0,26.31.11,52.62-.08,78.93,0,5.21,1.52,9,6,11.58,23.5,13.66,46.94,27.42,70.47,41,19.82,11.48,39.85,22.61,59.54,34.3,8.87,5.27,16.12,8.91,27,2,24.9-15.8,51-29.71,76.58-44.44,18.54-10.67,37-21.46,55.57-32.12,4.7-2.71,6.53-6.57,6.45-12-.19-13.65,0-27.3,0-41,0-38.8-.06-77.6,0-116.39,0-5.64-1.45-9.83-6.67-12.81-18.3-10.43-36.41-21.2-54.66-31.72-27-15.57-54.16-30.92-81.09-46.63-5.5-3.21-10-3.53-15.67-.23-28.88,16.93-57.94,33.57-86.94,50.31q-25,14.44-50,28.86c-4.63,2.66-6.66,6.27-6.61,11.79C808.12,495.71,808,521.85,808,548Z" transform="translate(-760 -340)"/><path class="cls-2" d="M808,548c0-26.14.12-52.28-.09-78.43,0-5.52,2-9.13,6.61-11.79q25-14.37,50-28.86c29-16.74,58.06-33.38,86.94-50.31,5.62-3.3,10.17-3,15.67.23,26.93,15.71,54.08,31.06,81.09,46.63,18.25,10.52,36.36,21.29,54.66,31.72,5.22,3,6.68,7.17,6.67,12.81-.11,38.79,0,77.59,0,116.39,0,13.66-.14,27.31,0,41,.08,5.39-1.75,9.25-6.45,12-18.55,10.66-37,21.45-55.57,32.12-25.58,14.73-51.68,28.64-76.58,44.44-10.85,6.88-18.1,3.24-27-2-19.69-11.69-39.72-22.82-59.54-34.3-23.53-13.61-47-27.37-70.47-41-4.52-2.62-6.08-6.37-6-11.58C808.11,600.61,808,574.3,808,548ZM950.43,406c-2.38,1.15-4.84,2.16-7.12,3.48-27.56,15.92-55.06,31.94-82.64,47.82-10.36,6-10.6,14.83-.44,21,7.2,4.4,15,7.73,21.82,12.83-7.17,3.5-10,9.28-9,17.08a16.3,16.3,0,0,1-.3,3.46c-8.62-5-17.1-10.2-25.9-14.83-8.05-4.22-15.73.66-15.79,9.61,0,6.49,0,13,0,19.48q.09,41.68.2,83.38c-.64,7.07-.87,14,7.49,17.08a24.38,24.38,0,0,0,2.71,2.08c11.95,6.84,24,13.59,35.88,20.48,17.4,10.05,34.72,20.22,52.11,30.27,9.9,5.72,18.48.75,18.53-10.62q.06-14.73.17-29.47c7.29,5.91,14.6,6.12,21.93.09.06,2,.17,4,.18,6,0,8.16-.14,16.33,0,24.48.25,10.29,7.85,14.81,17.1,10.21,2.81-1.4,5.35-3.33,8.09-4.91q36.22-20.89,72.47-41.77c3.84-2.23,8.19-3.63,11.39-6.91,7.34-3.3,8.38-5.65,7.65-17.18.14-1.48.41-3,.41-4.44,0-32.23,0-64.46.07-96.68,0-5.16-1.63-9.23-6.16-11.59-4.2-2.19-8.22-.9-12.25,1.32-8,4.39-15.22,10-23.77,13.32.26-8.19.18-16.23-9.21-20,1.65-1.1,3.25-2.29,5-3.29,6.44-3.77,13.08-7.22,19.32-11.29a10.27,10.27,0,0,0,0-17.54c-4.44-2.87-9.09-5.43-13.67-8.08-14.19-8.24-28.37-16.51-42.62-24.65-11.94-6.82-24-13.48-36-20.21C962.21,402.13,956.33,401.49,950.43,406Z" transform="translate(-760 -340)"/><path class="cls-3" d="M872.74,511.75a16.3,16.3,0,0,0,.3-3.46c-.95-7.8,1.84-13.58,9-17.08a5.5,5.5,0,0,0,1.43-.41c19.78-11.41,39.46-23,59.37-34.17,5.52-3.1,7.67-7.25,7.62-13.25-.11-12.45,0-24.9,0-37.34,5.9-4.55,11.78-3.91,17.65.06,0,13,0,25.94,0,38.9,0,5,1.88,8.5,6.34,10.89,5,2.65,9.72,5.69,14.61,8.48q23.53,13.42,47.09,26.79c9.39,3.74,9.47,11.78,9.21,20q-.15,34.61-.26,69.22c0,3.48,2.14,5.93,5,7.57,12.3,7.16,24.66,14.2,37,21.28.73,11.53-.31,13.88-7.65,17.18-13-7.55-26-15.16-39.11-22.62-3.11-1.77-6.38-1.29-9.48.51-6.16,3.57-12.37,7.08-18.54,10.65q-21.08,12.17-42.15,24.38c-7.33,6-14.64,5.82-21.93-.09l-60.72-35.05a9.07,9.07,0,0,0-9.49-.28c-13.09,7.48-26.13,15-39.19,22.59-8.36-3.12-8.13-10-7.49-17.08,10.82-6.12,21.54-12.44,32.51-18.3,7.48-4,10.17-9.75,10-18.16-.46-18.44-.13-36.9-.15-55.36C873.55,515.61,873.93,513.56,872.74,511.75Zm75.17,105.91c9.81,6.92,12.7,6.93,22.41.05,17.95-9.9,35.74-20.09,53.25-30.76a7.66,7.66,0,0,0,3.44-6.85q-.08-28.87-.2-57.75c1.21-13.57.08-15.89-10.1-20.84a6.89,6.89,0,0,0-1.08-1q-25.64-14.73-51.29-29.4c-3.59-2-7.3-1.77-10.87.28l-16.78,9.7-35.16,20.42c-7.53,2.89-11.44,8-10.14,16.38a47.43,47.43,0,0,1,.31,4.92q-.12,28.88-.22,57.73c0,4,2.52,6.27,5.68,8.12,8.58,5,17.09,10.1,25.7,15C931.16,608.41,939.55,613,947.91,617.66Z" transform="translate(-760 -340)"/><path class="cls-1" d="M970.06,639.3q21.08-12.19,42.15-24.38c6.17-3.57,12.38-7.08,18.54-10.65,3.1-1.8,6.37-2.28,9.48-.51,13.08,7.46,26.08,15.07,39.11,22.62-3.2,3.28-7.55,4.68-11.39,6.91q-36.21,20.94-72.47,41.77c-2.74,1.58-5.28,3.51-8.09,4.91-9.25,4.6-16.85.08-17.1-10.21-.19-8.15,0-16.32,0-24.48C970.23,643.29,970.12,641.29,970.06,639.3Z" transform="translate(-760 -340)"/><path class="cls-1" d="M838.73,626.47c13.06-7.54,26.1-15.11,39.19-22.59a9.07,9.07,0,0,1,9.49.28l60.72,35.05q-.09,14.73-.17,29.47c-.05,11.37-8.63,16.34-18.53,10.62-17.39-10-34.71-20.22-52.11-30.27-11.92-6.89-23.93-13.64-35.88-20.48A24.38,24.38,0,0,1,838.73,626.47Z" transform="translate(-760 -340)"/><path class="cls-1" d="M872.74,511.75c1.19,1.81.81,3.86.81,5.82,0,18.46-.31,36.92.15,55.36.22,8.41-2.47,14.16-10,18.16-11,5.86-21.69,12.18-32.51,18.3q-.11-41.68-.2-83.38c0-6.5,0-13,0-19.48.06-8.95,7.74-13.83,15.79-9.61C855.64,501.55,864.12,506.78,872.74,511.75Z" transform="translate(-760 -340)"/><path class="cls-1" d="M1087,609.2c-12.35-7.08-24.71-14.12-37-21.28-2.81-1.64-5-4.09-5-7.57q.06-34.62.26-69.22c8.55-3.31,15.82-8.93,23.77-13.32,4-2.22,8-3.51,12.25-1.32,4.53,2.36,6.18,6.43,6.16,11.59-.11,32.22,0,64.45-.07,96.68C1087.4,606.24,1087.13,607.72,1087,609.2Z" transform="translate(-760 -340)"/><path class="cls-1" d="M950.43,406c0,12.44-.07,24.89,0,37.34,0,6-2.1,10.15-7.62,13.25-19.91,11.17-39.59,22.76-59.37,34.17a5.5,5.5,0,0,1-1.43.41c-6.79-5.1-14.62-8.43-21.82-12.83-10.16-6.21-9.92-15.06.44-21,27.58-15.88,55.08-31.9,82.64-47.82C945.59,408.2,948.05,407.19,950.43,406Z" transform="translate(-760 -340)"/><path class="cls-1" d="M1036.08,491.16q-23.55-13.4-47.09-26.79c-4.89-2.79-9.65-5.83-14.61-8.48C969.92,453.5,968,450,968,445c.08-13,0-25.93,0-38.9,12,6.73,24,13.39,36,20.21,14.25,8.14,28.43,16.41,42.62,24.65,4.58,2.65,9.23,5.21,13.67,8.08a10.27,10.27,0,0,1,0,17.54c-6.24,4.07-12.88,7.52-19.32,11.29C1039.33,488.87,1037.73,490.06,1036.08,491.16Z" transform="translate(-760 -340)"/><path class="cls-2" d="M891.7,522.79a47.43,47.43,0,0,0-.31-4.92c-1.3-8.38,2.61-13.49,10.14-16.38a18.62,18.62,0,0,0,2.32,1.87c16.47,9.56,32.92,19.16,49.46,28.58,4,2.3,8.35,1.84,12.38-.42,3.76-2.12,7.46-4.33,11.15-6.56,13.2-8,27-14.84,39.87-23.45,10.18,4.95,11.31,7.27,10.1,20.84-16.34,9.43-32.63,18.94-49,28.22-5.17,2.92-7.59,6.94-7.55,12.84.12,18.1.08,36.2.11,54.3-9.71,6.88-12.6,6.87-22.41-.05,0-18.33,0-36.65.07-55a12.36,12.36,0,0,0-6.2-11.2C925.2,541.74,908.41,532.33,891.7,522.79Z" transform="translate(-760 -340)"/><path class="cls-1" d="M1016.71,501.51C1003.88,510.12,990,517,976.84,525c-3.69,2.23-7.39,4.44-11.15,6.56-4,2.26-8.34,2.72-12.38.42-16.54-9.42-33-19-49.46-28.58a18.62,18.62,0,0,1-2.32-1.87l35.16-20.42,16.78-9.7c3.57-2.05,7.28-2.32,10.87-.28q25.68,14.63,51.29,29.4A6.89,6.89,0,0,1,1016.71,501.51Z" transform="translate(-760 -340)"/><path class="cls-1" d="M970.32,617.71c0-18.1,0-36.2-.11-54.3,0-5.9,2.38-9.92,7.55-12.84,16.42-9.28,32.71-18.79,49-28.22q.11,28.88.2,57.75a7.66,7.66,0,0,1-3.44,6.85C1006.06,597.62,988.27,607.81,970.32,617.71Z" transform="translate(-760 -340)"/><path class="cls-1" d="M891.7,522.79c16.71,9.54,33.5,19,50.08,28.7a12.36,12.36,0,0,1,6.2,11.2c-.08,18.32-.06,36.64-.07,55-8.36-4.66-16.75-9.25-25-14-8.61-4.92-17.12-10-25.7-15-3.16-1.85-5.69-4.14-5.68-8.12Q891.56,551.66,891.7,522.79Z" transform="translate(-760 -340)"/></svg>