<?xml version="1.0" encoding="utf-8"?>
<!-- Generator: Adobe Illustrator 25.4.1, SVG Export Plug-In . SVG Version: 6.00 Build 0)  -->
<svg version="1.1" id="Layer_1" xmlns="http://www.w3.org/2000/svg" xmlns:xlink="http://www.w3.org/1999/xlink" x="0px" y="0px"
	 viewBox="0 0 113.31 40" style="enable-background:new 0 0 113.31 40;" xml:space="preserve">
<style type="text/css">
	.st0{fill:#DF0078;}
	.st1{fill:#33415B;}
	.st2{fill:#FFFFFF;}
	.st3{fill:#A6A6A6;}
	.st4{fill:#4158AB;}
	.st5{fill:#3E4B64;}
	.st6{fill:#3A4761;}
	.st7{fill:#2B3954;}
	.st8{fill:#22304A;}
	.st9{fill:#1A2740;}
	.st10{fill:#222222;}
	.st11{fill:#3C53A4;}
	.st12{fill:#354B9A;}
	.st13{fill:#2D418B;}
	.st14{fill:#24367A;}
	.st15{fill:#1B2C68;}
	.st16{fill-rule:evenodd;clip-rule:evenodd;fill:#DF0078;}
	.st17{fill:#00A99D;}
	.st18{fill-rule:evenodd;clip-rule:evenodd;fill:#FFFFFF;}
	.st19{font-family:'Montserrat-Bold';}
	.st20{font-size:8px;}
	.st21{fill:#A5A5A5;}
</style>
<g>
	<path class="st0" d="M103.78,0H9.53C9.17,0,8.81,0,8.44,0C8.13,0,7.83,0.01,7.52,0.01c-0.67,0.01-1.34,0.07-2,0.18
		c-0.66,0.11-1.3,0.32-1.9,0.63C3.02,1.12,2.47,1.52,2,2C1.52,2.47,1.12,3.02,0.82,3.62c-0.3,0.6-0.51,1.24-0.62,1.9
		c-0.11,0.66-0.17,1.33-0.18,2C0.01,7.83,0,8.14,0,8.44v23.11c0,0.31,0.01,0.61,0.02,0.92c0.01,0.67,0.07,1.34,0.18,2
		c0.11,0.66,0.32,1.31,0.62,1.9c0.3,0.6,0.7,1.14,1.18,1.61c0.47,0.48,1.02,0.87,1.62,1.18c0.6,0.3,1.24,0.52,1.9,0.63
		c0.66,0.11,1.33,0.17,2,0.18C7.83,39.99,8.13,40,8.44,40c0.37,0,0.73,0,1.09,0h94.25c0.36,0,0.72,0,1.08,0c0.3,0,0.62,0,0.92-0.01
		c0.67-0.01,1.34-0.07,2-0.18c0.66-0.11,1.31-0.33,1.91-0.63c0.6-0.3,1.14-0.7,1.62-1.18c0.48-0.47,0.87-1.02,1.18-1.61
		c0.3-0.6,0.51-1.24,0.62-1.9c0.11-0.66,0.17-1.33,0.19-2c0-0.31,0-0.61,0-0.92c0.01-0.36,0.01-0.72,0.01-1.09V9.54
		c0-0.37,0-0.73-0.01-1.09c0-0.31,0-0.61,0-0.92c-0.01-0.67-0.07-1.34-0.19-2c-0.11-0.66-0.32-1.3-0.62-1.9
		c-0.62-1.2-1.6-2.18-2.8-2.8c-0.6-0.3-1.24-0.51-1.91-0.63c-0.66-0.11-1.33-0.17-2-0.18c-0.3,0-0.62-0.01-0.92-0.01
		C104.5,0,104.14,0,103.78,0L103.78,0z"/>
</g>
<g>
	<path class="st9" d="M8.44,39.13c-0.3,0-0.6,0-0.9-0.01c-0.63-0.01-1.25-0.06-1.87-0.16c-0.58-0.1-1.13-0.28-1.66-0.55
		c-0.52-0.26-0.99-0.61-1.4-1.02c-0.41-0.41-0.76-0.88-1.02-1.4c-0.26-0.52-0.45-1.08-0.54-1.66c-0.1-0.62-0.16-1.25-0.17-1.88
		c-0.01-0.21-0.01-0.91-0.01-0.91V8.44c0,0,0.01-0.69,0.01-0.89C0.9,6.92,0.95,6.3,1.05,5.68C1.15,5.1,1.33,4.54,1.6,4.02
		c0.26-0.52,0.6-0.99,1.02-1.4C3.02,2.21,3.5,1.86,4.01,1.6c0.52-0.26,1.08-0.45,1.65-0.54c0.62-0.1,1.25-0.16,1.88-0.16l0.9-0.01
		h96.41l0.91,0.01c0.62,0.01,1.24,0.06,1.86,0.16c0.58,0.1,1.14,0.28,1.67,0.55c1.04,0.53,1.88,1.38,2.42,2.42
		c0.26,0.52,0.44,1.08,0.54,1.65c0.1,0.62,0.16,1.25,0.17,1.89c0,0.28,0,0.59,0,0.89c0.01,0.38,0.01,0.73,0.01,1.09v20.93
		c0,0.36,0,0.72-0.01,1.08c0,0.33,0,0.62,0,0.93c-0.01,0.62-0.07,1.24-0.17,1.85c-0.09,0.58-0.28,1.14-0.54,1.67
		c-0.26,0.51-0.61,0.98-1.02,1.39c-0.41,0.41-0.88,0.76-1.4,1.02c-0.53,0.27-1.09,0.45-1.67,0.55c-0.62,0.1-1.24,0.16-1.87,0.16
		c-0.29,0.01-0.6,0.01-0.9,0.01l-1.08,0L8.44,39.13z"/>
</g>
<g>
	<g>
		<path class="st16" d="M67.43,23.6c-1.35,2.73-4.19,4.61-7.48,4.61c-2.8,0-5.28-1.37-6.78-3.46v1.95c0,0.08-0.06,0.15-0.14,0.16
			l-6.91,0.6c-0.09,0.01-0.18-0.02-0.25-0.09l-3.99-3.94c-0.08-0.08-0.11-0.21-0.08-0.32l3.43-10.4c0.04-0.12,0.15-0.2,0.27-0.21
			l7.13-0.62c0.04,0,0.07,0.03,0.05,0.07l-3.72,11.28c-0.01,0.03,0.01,0.07,0.05,0.07h3.31c-0.44-1-0.69-2.1-0.69-3.26
			c0-4.52,3.72-8.18,8.31-8.18c3.29,0,6.13,1.88,7.48,4.61c1.35-2.73,4.19-4.61,7.48-4.61c2.87,0,5.39,1.43,6.89,3.61v-1.9
			c0-0.09,0.07-0.16,0.16-0.16l15.03,0.51c0.03,0,0.06,0.04,0.05,0.07l-1.11,3.37c-0.04,0.13-0.16,0.21-0.3,0.21h-3.38
			c-0.14,0-0.26,0.09-0.3,0.21l-3.68,11.15c-0.01,0.04-0.06,0.05-0.09,0.02l-4.64-4.57c-0.08-0.08-0.11-0.21-0.08-0.32l2.12-6.43
			c0.01-0.03-0.01-0.07-0.05-0.07h-2.72c0.25,0.78,0.38,1.61,0.38,2.47c0,4.52-3.72,8.18-8.31,8.18
			C71.61,28.21,68.77,26.33,67.43,23.6z M97.51,18.05l-0.69,2.03v1.55c0,0.07,0.02,0.13,0.07,0.17c0.05,0.05,0.11,0.07,0.18,0.07
			h3.07c0.07,0,0.13-0.02,0.18-0.07c0.05-0.05,0.07-0.1,0.07-0.17v-0.24c0-0.07-0.02-0.12-0.07-0.17c-0.05-0.05-0.11-0.07-0.17-0.07
			h-2.14v-0.72h1.91c0.07,0,0.12-0.02,0.17-0.07c0.05-0.05,0.07-0.1,0.07-0.16v-0.49c0-0.06-0.02-0.12-0.07-0.16
			c-0.05-0.05-0.1-0.07-0.17-0.07h-1.91v-0.72h2.13c0.07,0,0.13-0.02,0.18-0.07c0.05-0.05,0.07-0.1,0.07-0.17v-0.24
			c0-0.07-0.02-0.12-0.07-0.17c-0.05-0.05-0.11-0.07-0.18-0.07H97.51z M100.76,21.86c-0.09,0-0.14-0.04-0.15-0.12
			c0-0.04,0.02-0.08,0.06-0.13l1.34-1.71l-1.27-1.6c-0.04-0.05-0.06-0.09-0.06-0.13c0-0.08,0.05-0.12,0.15-0.12h0.57
			c0.18,0,0.33,0.08,0.47,0.25l0.73,0.93l0.73-0.93c0.13-0.17,0.29-0.25,0.47-0.25h0.57c0.1,0,0.15,0.04,0.15,0.12
			c0,0.04-0.02,0.08-0.06,0.13l-1.27,1.6l1.34,1.71c0.04,0.05,0.06,0.08,0.06,0.11s0,0.05-0.01,0.06c-0.02,0.05-0.07,0.08-0.14,0.08
			h-0.57c-0.18,0-0.33-0.08-0.46-0.25l-0.81-1.04l-0.81,1.04c-0.13,0.17-0.29,0.25-0.46,0.25H100.76z"/>
	</g>
</g>
<text transform="matrix(1 0 0 1 8.7171 18.3771)"><tspan x="0" y="0" class="st2 st19 st20">Trade </tspan><tspan x="0" y="9" class="st2 st19 st20">On</tspan></text>
</svg>
