<?xml version="1.0" standalone="no"?>
<svg xmlns:xlink="http://www.w3.org/1999/xlink" id="wave" style="transform:rotate(180deg); transition: 0.3s" viewBox="0 0 1440 240" version="1.1" xmlns="http://www.w3.org/2000/svg"><defs><linearGradient id="sw-gradient-0" x1="0" x2="0" y1="1" y2="0"><stop stop-color="rgba(250, 250, 250, 1)" offset="0%"/><stop stop-color="rgba(250, 250, 250, 1)" offset="100%"/></linearGradient></defs><path style="transform:translate(0, 0px); opacity:1" fill="url(#sw-gradient-0)" d="M0,168L60,168C120,168,240,168,360,164C480,160,600,152,720,132C840,112,960,80,1080,60C1200,40,1320,32,1440,56C1560,80,1680,136,1800,148C1920,160,2040,128,2160,104C2280,80,2400,64,2520,76C2640,88,2760,128,2880,136C3000,144,3120,120,3240,120C3360,120,3480,144,3600,128C3720,112,3840,56,3960,28C4080,0,4200,0,4320,12C4440,24,4560,48,4680,56C4800,64,4920,56,5040,72C5160,88,5280,128,5400,152C5520,176,5640,184,5760,184C5880,184,6000,176,6120,160C6240,144,6360,120,6480,120C6600,120,6720,144,6840,140C6960,136,7080,104,7200,100C7320,96,7440,120,7560,128C7680,136,7800,128,7920,108C8040,88,8160,56,8280,48C8400,40,8520,56,8580,64L8640,72L8640,240L8580,240C8520,240,8400,240,8280,240C8160,240,8040,240,7920,240C7800,240,7680,240,7560,240C7440,240,7320,240,7200,240C7080,240,6960,240,6840,240C6720,240,6600,240,6480,240C6360,240,6240,240,6120,240C6000,240,5880,240,5760,240C5640,240,5520,240,5400,240C5280,240,5160,240,5040,240C4920,240,4800,240,4680,240C4560,240,4440,240,4320,240C4200,240,4080,240,3960,240C3840,240,3720,240,3600,240C3480,240,3360,240,3240,240C3120,240,3000,240,2880,240C2760,240,2640,240,2520,240C2400,240,2280,240,2160,240C2040,240,1920,240,1800,240C1680,240,1560,240,1440,240C1320,240,1200,240,1080,240C960,240,840,240,720,240C600,240,480,240,360,240C240,240,120,240,60,240L0,240Z"/></svg>