<svg xmlns="http://www.w3.org/2000/svg" viewBox="0 0 463.49 81.91"><defs><style>.cls-1{fill:#fff;}.cls-2{fill:#f47e14;}</style></defs><g id="Layer_2" data-name="Layer 2"><g id="Layer_1-2" data-name="Layer 1"><path class="cls-1" d="M153.72,44.57,148.51,74H131.24l5.21-29.42L121.3,6.47h18.33l7.24,21.71L161.72,6.47h20.45Z"/><path class="cls-1" d="M177.65,51.81l8-45.34h17.27l-7.72,43.7c-.87,4.82.87,8.49,8,8.49s10.13-3.67,11-8.49l7.63-43.7h17.26l-8,45.34c-2.8,15.62-14.67,23.63-29.52,23.63C185.07,75.44,175.23,65.51,177.65,51.81Z"/><path class="cls-1" d="M305.75,74H288.58L295,37.53l-21.13,27.2h-1.73L260.61,37.05,254.15,74H236.88L248.74,6.47H266L277,35.6,299.29,6.47h18.33Z"/><path class="cls-1" d="M385.34,74H368.17l6.37-36.46-21.13,27.2h-1.73L340.2,37.05,333.74,74H316.47L328.33,6.47H345.6l11,29.13L378.88,6.47h18.33Z"/><path class="cls-1" d="M435,44.57,429.82,74H412.55l5.21-29.42L402.62,6.47H421l7.23,21.71L443,6.47h20.45Z"/><path class="cls-1" d="M13.11,24.52c5.58-6.1,13.16-9.21,21.86-9.63,9-.43,18.42,2.19,26.32,6.38,1.3.69,3.29,2.4,2.48,4.09a2.16,2.16,0,0,1-1.92,1.1c-6.81.48-13.66,0-20.47.29-3.22.14-4.42-3.42-5.53-5.89a25.87,25.87,0,0,0-22,12.78,26.24,26.24,0,0,0-3.44,10.29,39.49,39.49,0,0,0,49,33.82l-1.1-.18c-11.27-2.18-19.4-7.9-23.68-18.76a8,8,0,0,1-7.22-6c-1.21-4.69-2.7-9.4-3.68-14.13a2.06,2.06,0,0,1,1.5-2.41l.17-.05a2.07,2.07,0,0,1,2.5,1.48L31.1,50.12a.82.82,0,1,0,1.59-.41L29.53,37.32A2.06,2.06,0,0,1,31,34.82l.11,0a2.07,2.07,0,0,1,2.51,1.48l3.17,12.38a.82.82,0,0,0,1,.6.84.84,0,0,0,.59-1L35.22,35.85a2.05,2.05,0,0,1,1.48-2.5l.1,0a2.08,2.08,0,0,1,2.51,1.48l3.6,14.05A8,8,0,0,1,40.23,57h0A24.22,24.22,0,0,0,50.62,68.69a25.82,25.82,0,0,0,26-.34,39.46,39.46,0,0,0,2.58-55.08c3.19,9.27,1.35,19.25-4.23,27.48C76.54,45,73.75,50.39,71,53.49a15.77,15.77,0,0,1-8.19,4.8c-1.7.4-4.95.78-6.39-.48S55,53.27,55.13,51.54a15.73,15.73,0,0,1,3.7-8.75c2.63-3,7.18-6.18,11.42-5.66h0c.51-.77,1-1.55,1.46-2.35a23.78,23.78,0,0,0,.68-22.46,25.67,25.67,0,0,0-7.24-9.17,39.51,39.51,0,0,0-52,21.36Z"/><path class="cls-2" d="M39.8,81.26C24.49,82.9,13.26,81.44,12.25,77c-.59-2.63,2.53-5.88,8.21-9.15-3.31,2.17-5,4.22-4.66,5.92,1.12,4.92,19.61,4.93,41.31,0S95.5,60.9,94.39,56c-.39-1.69-2.83-2.81-6.76-3.34,6.54.51,10.76,2.1,11.35,4.73,1,4.43-8.52,10.6-23.09,15.72C59.6,78.81,39.8,81.26,39.8,81.26Z"/><path class="cls-2" d="M2,45.05a2,2,0,1,1-2,2A2,2,0,0,1,2,45.05Z"/><path class="cls-2" d="M95.87,27.1a3.68,3.68,0,1,1-3.67,3.68A3.68,3.68,0,0,1,95.87,27.1Z"/><path class="cls-2" d="M90.48,20.84a3.42,3.42,0,0,1,4.69-1.26,3.45,3.45,0,0,1-1.26-4.7,3.42,3.42,0,0,1-4.69,1.26,3.44,3.44,0,0,1,1.25,4.7Z"/><path class="cls-2" d="M2.21,64.09a5.39,5.39,0,0,1,7.36-2,5.38,5.38,0,0,1-2-7.36,5.38,5.38,0,0,1-7.36,2A5.4,5.4,0,0,1,2.21,64.09Z"/></g></g></svg>