<svg xmlns="http://www.w3.org/2000/svg" viewBox="0 0 33.04 27.18"><defs><style>.cls-1{fill:#0b0f27;}.cls-2{fill:#f47e14;}</style></defs><g id="Layer_2" data-name="Layer 2"><g id="Layer_1-2" data-name="Layer 1"><path class="cls-1" d="M4.35,8.14a10.16,10.16,0,0,1,7.25-3.2,17.45,17.45,0,0,1,8.74,2.12c.43.23,1.09.79.82,1.36a.72.72,0,0,1-.63.36c-2.27.16-4.54,0-6.8.1-1.07,0-1.46-1.14-1.83-2a8.61,8.61,0,0,0-8.44,7.66,13.1,13.1,0,0,0,13,11.63,12.79,12.79,0,0,0,3.24-.41c-.12,0-.24,0-.36-.06-3.74-.72-6.44-2.62-7.86-6.22a2.65,2.65,0,0,1-2.39-2c-.41-1.56-.9-3.12-1.23-4.69a.69.69,0,0,1,.5-.8l.06,0a.69.69,0,0,1,.83.49l1.05,4.11a.27.27,0,1,0,.53-.13l-1-4.11a.7.7,0,0,1,.49-.84h0a.68.68,0,0,1,.84.49l1.05,4.11a.27.27,0,0,0,.33.19.28.28,0,0,0,.2-.33L11.69,11.9a.67.67,0,0,1,.49-.83h0a.7.7,0,0,1,.84.49l1.19,4.66a2.66,2.66,0,0,1-.89,2.71h0A8.09,8.09,0,0,0,16.8,22.8a8.57,8.57,0,0,0,8.62-.12A13.1,13.1,0,0,0,26.27,4.4a10.24,10.24,0,0,1-1.4,9.12c.53,1.4-.4,3.2-1.3,4.23a5.3,5.3,0,0,1-2.72,1.6,2.82,2.82,0,0,1-2.12-.17c-.48-.41-.49-1.5-.43-2.08a5.2,5.2,0,0,1,1.22-2.9c.88-1,2.39-2,3.79-1.88h0c.17-.26.33-.52.49-.78A7.9,7.9,0,0,0,24,4.09a8.46,8.46,0,0,0-2.4-3A13.11,13.11,0,0,0,4.35,8.14Z"/><path class="cls-2" d="M13.21,27c-5.08.54-8.81.06-9.14-1.41-.2-.88.83-1.95,2.72-3-1.1.72-1.67,1.4-1.54,2,.37,1.64,6.5,1.64,13.7,0s12.74-4.28,12.37-5.91c-.12-.56-.93-.93-2.24-1.11,2.17.17,3.57.7,3.77,1.57.33,1.47-2.83,3.52-7.66,5.22A67.18,67.18,0,0,1,13.21,27Z"/><path class="cls-2" d="M.67,15a.68.68,0,1,1-.67.67A.67.67,0,0,1,.67,15Z"/><path class="cls-2" d="M31.82,9a1.23,1.23,0,1,1-1.22,1.22A1.22,1.22,0,0,1,31.82,9Z"/><path class="cls-2" d="M30,6.91a1.14,1.14,0,0,1,1.56-.41,1.14,1.14,0,0,1-.42-1.56,1.16,1.16,0,0,1-1.56.42A1.14,1.14,0,0,1,30,6.91Z"/><path class="cls-2" d="M.73,21.27a1.79,1.79,0,0,1,2.45-.65,1.8,1.8,0,0,1-.66-2.45,1.79,1.79,0,0,1-2.44.66A1.78,1.78,0,0,1,.73,21.27Z"/></g></g></svg>